<svg width="194" height="33" viewBox="0 0 194 33" fill="none" xmlns="http://www.w3.org/2000/svg">
<path d="M6.65992 16.4466C6.65992 15.0866 6.97326 13.8666 7.59992 12.7866C8.23992 11.7066 9.09992 10.8666 10.1799 10.2666C11.2733 9.6533 12.4666 9.34663 13.7599 9.34663C15.2399 9.34663 16.5533 9.7133 17.6999 10.4466C18.8599 11.1666 19.6999 12.1933 20.2199 13.5266H17.4799C17.1199 12.7933 16.6199 12.2466 15.9799 11.8866C15.3399 11.5266 14.5999 11.3466 13.7599 11.3466C12.8399 11.3466 12.0199 11.5533 11.2999 11.9666C10.5799 12.38 10.0133 12.9733 9.59992 13.7466C9.19992 14.52 8.99992 15.42 8.99992 16.4466C8.99992 17.4733 9.19992 18.3733 9.59992 19.1466C10.0133 19.92 10.5799 20.52 11.2999 20.9466C12.0199 21.36 12.8399 21.5666 13.7599 21.5666C14.5999 21.5666 15.3399 21.3866 15.9799 21.0266C16.6199 20.6666 17.1199 20.12 17.4799 19.3866H20.2199C19.6999 20.72 18.8599 21.7466 17.6999 22.4666C16.5533 23.1866 15.2399 23.5466 13.7599 23.5466C12.4533 23.5466 11.2599 23.2466 10.1799 22.6466C9.09992 22.0333 8.23992 21.1866 7.59992 20.1066C6.97326 19.0266 6.65992 17.8066 6.65992 16.4466ZM25.1687 14.0066C25.502 13.4466 25.942 13.0133 26.4887 12.7066C27.0487 12.3866 27.7087 12.2266 28.4687 12.2266V14.5866H27.8887C26.9953 14.5866 26.3153 14.8133 25.8487 15.2666C25.3953 15.72 25.1687 16.5066 25.1687 17.6266V23.4266H22.8887V12.4066H25.1687V14.0066ZM40.4845 12.4066L33.7245 28.6066H31.3645L33.6045 23.2466L29.2645 12.4066H31.8045L34.9045 20.8066L38.1245 12.4066H40.4845ZM44.4851 14.0266C44.8717 13.52 45.3984 13.0933 46.0651 12.7466C46.7317 12.4 47.4851 12.2266 48.3251 12.2266C49.2851 12.2266 50.1584 12.4666 50.9451 12.9466C51.7451 13.4133 52.3717 14.0733 52.8251 14.9266C53.2784 15.78 53.5051 16.76 53.5051 17.8666C53.5051 18.9733 53.2784 19.9666 52.8251 20.8466C52.3717 21.7133 51.7451 22.3933 50.9451 22.8866C50.1584 23.3666 49.2851 23.6066 48.3251 23.6066C47.4851 23.6066 46.7384 23.44 46.0851 23.1066C45.4317 22.76 44.8984 22.3333 44.4851 21.8266V28.6666H42.2051V12.4066H44.4851V14.0266ZM51.1851 17.8666C51.1851 17.1066 51.0251 16.4533 50.7051 15.9066C50.3984 15.3466 49.9851 14.9266 49.4651 14.6466C48.9584 14.3533 48.4117 14.2066 47.8251 14.2066C47.2517 14.2066 46.7051 14.3533 46.1851 14.6466C45.6784 14.94 45.2651 15.3666 44.9451 15.9266C44.6384 16.4866 44.4851 17.1466 44.4851 17.9066C44.4851 18.6666 44.6384 19.3333 44.9451 19.9066C45.2651 20.4666 45.6784 20.8933 46.1851 21.1866C46.7051 21.48 47.2517 21.6266 47.8251 21.6266C48.4117 21.6266 48.9584 21.48 49.4651 21.1866C49.9851 20.88 50.3984 20.44 50.7051 19.8666C51.0251 19.2933 51.1851 18.6266 51.1851 17.8666ZM58.4198 14.2666V20.3666C58.4198 20.78 58.5131 21.08 58.6998 21.2666C58.8998 21.44 59.2331 21.5266 59.6998 21.5266H61.0998V23.4266H59.2998C58.2731 23.4266 57.4864 23.1866 56.9398 22.7066C56.3931 22.2266 56.1198 21.4466 56.1198 20.3666V14.2666H54.8198V12.4066H56.1198V9.66664H58.4198V12.4066H61.0998V14.2666H58.4198ZM67.9812 23.6066C66.9412 23.6066 66.0012 23.3733 65.1612 22.9066C64.3212 22.4266 63.6612 21.76 63.1812 20.9066C62.7012 20.04 62.4612 19.04 62.4612 17.9066C62.4612 16.7866 62.7078 15.7933 63.2012 14.9266C63.6945 14.06 64.3678 13.3933 65.2212 12.9266C66.0745 12.46 67.0278 12.2266 68.0812 12.2266C69.1345 12.2266 70.0878 12.46 70.9412 12.9266C71.7945 13.3933 72.4678 14.06 72.9612 14.9266C73.4545 15.7933 73.7012 16.7866 73.7012 17.9066C73.7012 19.0266 73.4478 20.02 72.9412 20.8866C72.4345 21.7533 71.7412 22.4266 70.8612 22.9066C69.9945 23.3733 69.0345 23.6066 67.9812 23.6066ZM67.9812 21.6266C68.5678 21.6266 69.1145 21.4866 69.6212 21.2066C70.1412 20.9266 70.5612 20.5066 70.8812 19.9466C71.2012 19.3866 71.3612 18.7066 71.3612 17.9066C71.3612 17.1066 71.2078 16.4333 70.9012 15.8866C70.5945 15.3266 70.1878 14.9066 69.6812 14.6266C69.1745 14.3466 68.6278 14.2066 68.0412 14.2066C67.4545 14.2066 66.9078 14.3466 66.4012 14.6266C65.9078 14.9066 65.5145 15.3266 65.2212 15.8866C64.9278 16.4333 64.7812 17.1066 64.7812 17.9066C64.7812 19.0933 65.0812 20.0133 65.6812 20.6666C66.2945 21.3066 67.0612 21.6266 67.9812 21.6266Z" fill="white"/>
<path d="M75.1951 16.4466C75.1951 15.0866 75.5084 13.8666 76.1351 12.7866C76.7751 11.7066 77.6351 10.8666 78.7151 10.2666C79.8084 9.6533 81.0017 9.34663 82.2951 9.34663C83.7751 9.34663 85.0884 9.7133 86.2351 10.4466C87.3951 11.1666 88.2351 12.1933 88.7551 13.5266H86.0151C85.6551 12.7933 85.1551 12.2466 84.5151 11.8866C83.8751 11.5266 83.1351 11.3466 82.2951 11.3466C81.3751 11.3466 80.5551 11.5533 79.8351 11.9666C79.1151 12.38 78.5484 12.9733 78.1351 13.7466C77.7351 14.52 77.5351 15.42 77.5351 16.4466C77.5351 17.4733 77.7351 18.3733 78.1351 19.1466C78.5484 19.92 79.1151 20.52 79.8351 20.9466C80.5551 21.36 81.3751 21.5666 82.2951 21.5666C83.1351 21.5666 83.8751 21.3866 84.5151 21.0266C85.1551 20.6666 85.6551 20.12 86.0151 19.3866H88.7551C88.2351 20.72 87.3951 21.7466 86.2351 22.4666C85.0884 23.1866 83.7751 23.5466 82.2951 23.5466C80.9884 23.5466 79.7951 23.2466 78.7151 22.6466C77.6351 22.0333 76.7751 21.1866 76.1351 20.1066C75.5084 19.0266 75.1951 17.8066 75.1951 16.4466ZM97.1238 12.2266C97.9638 12.2266 98.7105 12.4066 99.3638 12.7666C100.03 13.1266 100.55 13.66 100.924 14.3666C101.31 15.0733 101.504 15.9266 101.504 16.9266V23.4266H99.2438V17.2666C99.2438 16.28 98.9972 15.5266 98.5038 15.0066C98.0105 14.4733 97.3372 14.2066 96.4838 14.2066C95.6305 14.2066 94.9505 14.4733 94.4438 15.0066C93.9505 15.5266 93.7038 16.28 93.7038 17.2666V23.4266H91.4238V8.62664H93.7038V13.6866C94.0905 13.22 94.5772 12.86 95.1638 12.6066C95.7638 12.3533 96.4172 12.2266 97.1238 12.2266ZM109.192 23.6066C108.152 23.6066 107.212 23.3733 106.372 22.9066C105.532 22.4266 104.872 21.76 104.392 20.9066C103.912 20.04 103.672 19.04 103.672 17.9066C103.672 16.7866 103.919 15.7933 104.412 14.9266C104.905 14.06 105.579 13.3933 106.432 12.9266C107.285 12.46 108.239 12.2266 109.292 12.2266C110.345 12.2266 111.299 12.46 112.152 12.9266C113.005 13.3933 113.679 14.06 114.172 14.9266C114.665 15.7933 114.912 16.7866 114.912 17.9066C114.912 19.0266 114.659 20.02 114.152 20.8866C113.645 21.7533 112.952 22.4266 112.072 22.9066C111.205 23.3733 110.245 23.6066 109.192 23.6066ZM109.192 21.6266C109.779 21.6266 110.325 21.4866 110.832 21.2066C111.352 20.9266 111.772 20.5066 112.092 19.9466C112.412 19.3866 112.572 18.7066 112.572 17.9066C112.572 17.1066 112.419 16.4333 112.112 15.8866C111.805 15.3266 111.399 14.9066 110.892 14.6266C110.385 14.3466 109.839 14.2066 109.252 14.2066C108.665 14.2066 108.119 14.3466 107.612 14.6266C107.119 14.9066 106.725 15.3266 106.432 15.8866C106.139 16.4333 105.992 17.1066 105.992 17.9066C105.992 19.0933 106.292 20.0133 106.892 20.6666C107.505 21.3066 108.272 21.6266 109.192 21.6266ZM119.446 14.0066C119.779 13.4466 120.219 13.0133 120.766 12.7066C121.326 12.3866 121.986 12.2266 122.746 12.2266V14.5866H122.166C121.273 14.5866 120.593 14.8133 120.126 15.2666C119.673 15.72 119.446 16.5066 119.446 17.6266V23.4266H117.166V12.4066H119.446V14.0066ZM124.082 17.8666C124.082 16.76 124.308 15.78 124.762 14.9266C125.228 14.0733 125.855 13.4133 126.642 12.9466C127.442 12.4666 128.328 12.2266 129.302 12.2266C130.022 12.2266 130.728 12.3866 131.422 12.7066C132.128 13.0133 132.688 13.4266 133.102 13.9466V8.62664H135.402V23.4266H133.102V21.7666C132.728 22.3 132.208 22.74 131.542 23.0866C130.888 23.4333 130.135 23.6066 129.282 23.6066C128.322 23.6066 127.442 23.3666 126.642 22.8866C125.855 22.3933 125.228 21.7133 124.762 20.8466C124.308 19.9666 124.082 18.9733 124.082 17.8666ZM133.102 17.9066C133.102 17.1466 132.942 16.4866 132.622 15.9266C132.315 15.3666 131.908 14.94 131.402 14.6466C130.895 14.3533 130.348 14.2066 129.762 14.2066C129.175 14.2066 128.628 14.3533 128.122 14.6466C127.615 14.9266 127.202 15.3466 126.882 15.9066C126.575 16.4533 126.422 17.1066 126.422 17.8666C126.422 18.6266 126.575 19.2933 126.882 19.8666C127.202 20.44 127.615 20.88 128.122 21.1866C128.642 21.48 129.188 21.6266 129.762 21.6266C130.348 21.6266 130.895 21.48 131.402 21.1866C131.908 20.8933 132.315 20.4666 132.622 19.9066C132.942 19.3333 133.102 18.6666 133.102 17.9066ZM142.396 23.6066C141.53 23.6066 140.75 23.4533 140.056 23.1466C139.376 22.8266 138.836 22.4 138.436 21.8666C138.036 21.32 137.823 20.7133 137.796 20.0466H140.156C140.196 20.5133 140.416 20.9066 140.816 21.2266C141.23 21.5333 141.743 21.6866 142.356 21.6866C142.996 21.6866 143.49 21.5666 143.836 21.3266C144.196 21.0733 144.376 20.7533 144.376 20.3666C144.376 19.9533 144.176 19.6466 143.776 19.4466C143.39 19.2466 142.77 19.0266 141.916 18.7866C141.09 18.56 140.416 18.34 139.896 18.1266C139.376 17.9133 138.923 17.5866 138.536 17.1466C138.163 16.7066 137.976 16.1266 137.976 15.4066C137.976 14.82 138.15 14.2866 138.496 13.8066C138.843 13.3133 139.336 12.9266 139.976 12.6466C140.63 12.3666 141.376 12.2266 142.216 12.2266C143.47 12.2266 144.476 12.5466 145.236 13.1866C146.01 13.8133 146.423 14.6733 146.476 15.7666H144.196C144.156 15.2733 143.956 14.88 143.596 14.5866C143.236 14.2933 142.75 14.1466 142.136 14.1466C141.536 14.1466 141.076 14.26 140.756 14.4866C140.436 14.7133 140.276 15.0133 140.276 15.3866C140.276 15.68 140.383 15.9266 140.596 16.1266C140.81 16.3266 141.07 16.4866 141.376 16.6066C141.683 16.7133 142.136 16.8533 142.736 17.0266C143.536 17.24 144.19 17.46 144.696 17.6866C145.216 17.9 145.663 18.22 146.036 18.6466C146.41 19.0733 146.603 19.64 146.616 20.3466C146.616 20.9733 146.443 21.5333 146.096 22.0266C145.75 22.52 145.256 22.9066 144.616 23.1866C143.99 23.4666 143.25 23.6066 142.396 23.6066Z" fill="#CF5629"/>
<path d="M170 0L174.389 11.9899L186.25 16.4266L174.389 20.8633L170 32.8533L165.611 20.8633L153.75 16.4266L165.611 11.9899L170 0Z" fill="white"/>
</svg>
