<svg width="52" height="52" viewBox="0 0 52 52" fill="none" xmlns="http://www.w3.org/2000/svg">
<rect x="0.5" y="0.5" width="51" height="51" rx="9.5" stroke="white"/>
<path d="M39.0367 13.5284C36.5122 12.3472 33.8128 11.4888 30.9907 11C30.6441 11.6266 30.2392 12.4694 29.96 13.1399C26.9601 12.6887 23.9877 12.6887 21.0429 13.1399C20.7638 12.4694 20.3497 11.6266 20 11C17.1748 11.4888 14.4724 12.3504 11.9478 13.5346C6.85579 21.2294 5.47543 28.7329 6.16561 36.13C9.54291 38.6521 12.8159 40.1841 16.0337 41.1867C16.8282 40.0933 17.5367 38.9309 18.1472 37.7059C16.9846 37.2641 15.8711 36.719 14.819 36.0861C15.0981 35.8793 15.3711 35.6631 15.6349 35.4407C22.0521 38.4422 29.0245 38.4422 35.3649 35.4407C35.6318 35.6631 35.9048 35.8793 36.1809 36.0861C35.1257 36.7221 34.0091 37.2672 32.8466 37.7091C33.457 38.9309 34.1625 40.0964 34.96 41.1898C38.1809 40.1872 41.4569 38.6552 44.8342 36.13C45.6441 27.5549 43.4508 20.1202 39.0367 13.5284ZM19.0214 31.5809C17.095 31.5809 15.5153 29.7825 15.5153 27.5925C15.5153 25.4025 17.0613 23.601 19.0214 23.601C20.9816 23.601 22.5613 25.3994 22.5275 27.5925C22.5306 29.7825 20.9816 31.5809 19.0214 31.5809ZM31.9785 31.5809C30.0521 31.5809 28.4723 29.7825 28.4723 27.5925C28.4723 25.4025 30.0183 23.601 31.9785 23.601C33.9386 23.601 35.5183 25.3994 35.4846 27.5925C35.4846 29.7825 33.9386 31.5809 31.9785 31.5809Z" fill="white"/>
</svg>
