<svg width="52" height="52" viewBox="0 0 52 52" fill="none" xmlns="http://www.w3.org/2000/svg">
<rect x="0.5" y="0.5" width="51" height="51" rx="9.5" stroke="white"/>
<path d="M42.1916 7.00511C36.3472 6.98871 14.7908 7.01631 9.8084 7.00511C8.258 7.00511 7 8.22471 7 9.72671V42.2791C7 43.7815 8.258 44.9999 9.8084 44.9999H42.1916C43.7428 44.9999 45 43.7815 45 42.2787V9.72671C45 8.22471 43.7428 7.00511 42.1916 7.00511Z" fill="white"/>
<path d="M27.3812 38.802C27.3812 38.802 27.3812 29.2508 27.3812 29.2504C27.3256 27.4952 28.3748 25.8572 30.486 25.7836C32.5432 25.7836 33.3664 27.352 33.3664 29.6516V38.8016H39.052V28.994C39.052 23.74 36.2472 21.2952 32.506 21.2952C29.4388 21.2952 28.0916 23.0092 27.3432 24.1768L27.3812 21.6968H21.6956C21.7696 23.3016 21.6952 38.802 21.6952 38.802H27.3812ZM18.548 31.3844V21.6964H12.8616V38.8016H18.5484C18.5472 37.0056 18.5504 33.1552 18.548 31.3844ZM15.706 19.3616C17.6884 19.3616 18.9228 18.048 18.9228 16.4068C18.9064 12.448 12.5212 12.492 12.5264 16.4064C12.522 18.0604 13.7904 19.382 15.706 19.3616Z" fill="black"/>
</svg>
